<?xml version="1.0" encoding="utf-8"?>
<!-- Generator: Adobe Illustrator 22.0.1, SVG Export Plug-In . SVG Version: 6.00 Build 0)  -->
<svg version="1.1" id="Layer_1" xmlns="http://www.w3.org/2000/svg" xmlns:xlink="http://www.w3.org/1999/xlink" x="0px" y="0px"
	 viewBox="0 0 34.5 41.4" style="enable-background:new 0 0 34.5 41.4;" xml:space="preserve">
<style type="text/css">
	.st0{fill:#D12439;}
	.st1{fill:#002337;}
</style>
<g>
	<path class="st0" d="M12.5,6.6C5.6,6.6,0,12.2,0,19.2c0,6.9,11,22.3,12.5,22.3c1.7,0,12.5-15.4,12.5-22.3
		C25,12.2,19.4,6.6,12.5,6.6z M12.5,28.9c-5.5,0-10-4.5-10-10c0-5.5,4.5-10,10-10c5.5,0,10,4.5,10,10C22.5,24.5,18,28.9,12.5,28.9z"
		/>
	<g>
		<path class="st1" d="M12.5,10.3c-4.8,0-8.7,3.9-8.7,8.7s3.9,8.7,8.7,8.7s8.7-3.9,8.7-8.7S17.3,10.3,12.5,10.3z M12.5,26.6
			c-4.2,0-7.7-3.4-7.7-7.7c0-4.2,3.4-7.7,7.7-7.7s7.7,3.4,7.7,7.7C20.2,23.2,16.7,26.6,12.5,26.6z"/>
		<path class="st1" d="M16.2,14.6l-3.5,3.5c-0.1,0-0.1,0-0.2,0c-0.2,0-0.4,0.1-0.5,0.2l-3.4-3.4c0,0-0.1,0-0.2,0s0,0.1,0,0.2
			l3.4,3.4c-0.1,0.1-0.2,0.3-0.2,0.5c0,0.4,0.3,0.7,0.6,0.8V25c0,0.1,0.1,0.2,0.2,0.2s0.2-0.1,0.2-0.2v-5.2c0.4-0.1,0.6-0.4,0.6-0.8
			c0-0.1,0-0.1,0-0.2l3.5-3.5c0.2-0.2,0.2-0.5,0-0.7S16.4,14.4,16.2,14.6z"/>
	</g>
	<polygon class="st1" points="34.5,28.1 30.5,28.1 30.5,24 27.2,24 27.2,28.1 23.2,28.1 23.2,31.3 27.2,31.3 27.2,35.4 30.5,35.4 
		30.5,31.3 34.5,31.3 	"/>
	<path class="st1" d="M13.1,1.5V0L8.4,3l4.8,3V4.6C21,4.8,27.3,11.2,27.3,19v3.6h3.1V19C30.4,9.4,22.7,1.6,13.1,1.5z"/>
</g>
</svg>
