<?xml version="1.0" encoding="utf-8"?>
<!-- Generator: Adobe Illustrator 22.1.0, SVG Export Plug-In . SVG Version: 6.00 Build 0)  -->
<svg version="1.1" id="Layer_1" xmlns="http://www.w3.org/2000/svg" xmlns:xlink="http://www.w3.org/1999/xlink" x="0px" y="0px"
	 viewBox="0 0 108.2 103.8" style="enable-background:new 0 0 108.2 103.8;" xml:space="preserve">
<g>
	<path d="M81.5,103.8c-1.7,0-3.3-0.5-4.9-1.3c-7.3-3.8-14.7-7.7-22-11.5c-0.4-0.2-0.6-0.2-1,0c-7.3,3.8-14.7,7.7-22,11.5
		c-2.1,1.1-4.4,1.6-6.8,1.1c-3.7-0.7-6.9-3.8-7.6-7.5c-0.3-1.7-0.1-3.3,0.2-4.9c0.7-4.2,1.4-8.4,2.1-12.6c0.6-3.7,1.2-7.4,1.9-11.1
		c0.1-0.4,0-0.6-0.3-0.9C15.1,60.8,9.1,55,3.2,49.2c-1.7-1.6-2.8-3.5-3.1-5.9c-0.5-3.6,0.7-6.7,3.6-9c1.8-1.5,3.9-1.9,6.1-2.2
		c3.6-0.5,7.1-1,10.7-1.5c3.3-0.5,6.6-1,9.9-1.5c1.1-0.2,2.1-0.3,3.2-0.4c0.4,0,0.5-0.3,0.7-0.6c3.7-7.5,7.3-14.9,11-22.3
		c1-2,2.4-3.7,4.5-4.7c2.3-1.1,4.6-1.4,7.1-0.7c2.9,0.8,4.9,2.7,6.2,5.4c3.7,7.4,7.3,14.9,11,22.3c0.2,0.4,0.4,0.5,0.8,0.6
		c3.9,0.6,7.7,1.1,11.6,1.7c3.6,0.5,7.1,1,10.7,1.6c1.6,0.3,3.3,0.5,4.8,1c2.7,0.9,4.6,2.8,5.6,5.4c1.3,3.3,0.9,6.4-1.1,9.3
		c-0.4,0.5-0.8,1-1.3,1.5c-5.9,5.8-11.9,11.6-17.8,17.4c-0.3,0.3-0.4,0.6-0.3,1c0.8,4.5,1.5,8.9,2.3,13.4c0.7,3.8,1.4,7.6,2,11.5
		C92,98.1,87.9,103.7,81.5,103.8z M81.5,97.5c2-0.1,3.5-1.7,3.3-3.7c-0.3-2.4-0.8-4.8-1.2-7.2c-1.1-6.6-2.2-13.1-3.3-19.7
		c-0.2-1.4,0-2.6,1.1-3.6c6.4-6.2,12.7-12.4,19-18.6c0.2-0.2,0.5-0.5,0.7-0.7c1.5-1.9,0.5-4.9-1.8-5.2c-3.9-0.6-7.8-1.2-11.8-1.7
		c-5.1-0.8-10.3-1.5-15.4-2.2c-1.3-0.2-2.3-0.9-2.8-2.1c-1.2-2.5-2.4-4.9-3.7-7.4c-2.8-5.6-5.6-11.2-8.4-16.8
		c-0.5-0.9-1.1-1.7-2.1-2c-1.3-0.4-3.1,0.1-4,1.9c-1.3,2.7-2.6,5.4-4,8c-2.7,5.4-5.4,10.8-8,16.2c-0.5,1.1-1.4,1.8-2.5,2
		c-1,0.2-2,0.3-3,0.4c-3.3,0.5-6.7,1-10,1.5c-3.3,0.5-6.6,1-10,1.4c-1.6,0.2-3.1,0.4-4.6,0.8c-1.6,0.4-2.6,2-2.3,3.6
		c0.1,0.8,0.6,1.5,1.2,2.1c6.5,6.3,12.9,12.7,19.4,19c0.8,0.8,1.1,1.7,0.9,2.8c-0.2,1.3-0.4,2.6-0.7,3.9c-0.7,4.1-1.4,8.3-2.1,12.4
		c-0.6,3.7-1.3,7.3-1.8,11c-0.1,0.6,0,1.3,0.3,1.9c0.8,1.7,2.8,2.4,4.5,1.5c1.4-0.7,2.9-1.5,4.3-2.2c6.6-3.5,13.2-6.9,19.8-10.4
		c1.3-0.7,2.4-0.7,3.7,0c0.4,0.2,0.8,0.4,1.2,0.6c7.5,4,15.1,7.9,22.6,11.9C80.3,97.2,80.9,97.3,81.5,97.5z"/>
	<path d="M52.3,35.9c0-2,0-4,0-6.1c1.3,0,2.6,0,3.9,0c0,1.9,0,3.9,0,5.8c2,0.5,4,0.5,5.8,1.6c-0.3,1.1-0.5,2.2-0.8,3.3
		c-0.9-0.3-1.7-0.6-2.5-0.9c-1.8-0.5-3.6-0.7-5.5-0.4c-4.1,0.6-4.3,4.7-2.7,6.9c0.5,0.6,1.1,1.1,1.7,1.6c2.3,1.5,4.8,2.9,7.1,4.5
		c1.8,1.2,3.1,2.9,3.6,5c1.2,4.2-0.8,8.1-4.9,9.8c-0.6,0.3-1.3,0.5-2,0.7c-0.3,0.1-0.5,0.2-0.5,0.6c0,1.8,0,3.5,0,5.3
		c0,0.1,0,0.2,0,0.3c-1.3,0-2.5,0-3.8,0c0-0.2,0-0.4,0-0.6c0-1.6,0-3.1,0-4.7c0-0.4-0.1-0.5-0.5-0.6c-2.2-0.2-4.3-0.9-6.4-1.8
		c0.3-1.1,0.5-2.2,0.8-3.4c0.5,0.2,1,0.4,1.5,0.6c2.3,1,4.8,1.4,7.3,1.1c1.2-0.1,2.3-0.5,3.2-1.3c1.6-1.4,1.9-3.9,0.9-6
		c-0.8-1.5-2.1-2.4-3.5-3.2c-1.8-1.1-3.7-2-5.4-3.2c-1.9-1.3-3.4-3-3.9-5.3c-1.1-4.8,1.5-8.5,6-9.5C51.8,36,52,36,52.3,35.9z"/>
</g>
</svg>
