<?xml version="1.0" encoding="utf-8"?>
<!-- Generator: Adobe Illustrator 22.0.1, SVG Export Plug-In . SVG Version: 6.00 Build 0)  -->
<svg version="1.1" id="Layer_1" xmlns="http://www.w3.org/2000/svg" xmlns:xlink="http://www.w3.org/1999/xlink" x="0px" y="0px"
	 viewBox="0 0 63.4 39.9" style="enable-background:new 0 0 63.4 39.9;" xml:space="preserve">
<style type="text/css">
	.st0{fill:#231F20;}
</style>
<g>
	<g>
		<path class="st0" d="M52.9,39.9H40.3l-29.9-0.5c-0.1,0-0.1,0-0.2,0C6.7,38.8,0,35.7,0,29c0-6.7,4.5-10.2,6.3-11.3
			c-0.6-2.6-0.4-7.1,3.8-9.6c4.4-2.5,7.9-0.5,9.8,1.6c1.9-3,7-9.7,16.7-9.7c11.8,0,18.2,8.6,18.6,17.4c6.4,0.7,8.3,7.5,8.3,11.1
			c0,0.3,0.1,5.2-3.1,8.5C58.5,39,56,39.9,52.9,39.9z M10.5,37.4l29.8,0.5h12.5c2.6,0,4.6-0.8,6-2.2c2.6-2.7,2.5-7.1,2.5-7.1
			c0,0,0,0,0,0c0-0.4-0.3-9.1-7.3-9.2c-0.5,0-1-0.5-1-1C53.1,10.2,47.4,2,36.5,2c-11.1,0-15.6,9.9-15.6,10c-0.2,0.3-0.5,0.6-0.9,0.6
			c-0.4,0-0.7-0.2-0.9-0.5c-0.3-0.5-3.2-5-8-2.3c-4.5,2.6-2.8,7.8-2.7,8c0.2,0.5-0.1,1-0.5,1.2C7.6,19.1,2,22.1,2,29
			C2,35.4,9.7,37.3,10.5,37.4z"/>
	</g>
	<g>
		<polygon class="st0" points="34.2,12.7 44.9,22.7 34.2,32.7 34.2,28.5 21.9,28.5 21.9,16.6 34.2,16.6 		"/>
	</g>
</g>
</svg>
